<svg xmlns="http://www.w3.org/2000/svg" viewBox="0 0 395.04 136"><defs><style>.cls-1{fill:#fff;}</style></defs><title>kvix-logo-neg</title><g id="Layer_2" data-name="Layer 2"><g id="Layer_1-2" data-name="Layer 1"><circle class="cls-1" cx="235.09" cy="14" r="14"/><circle class="cls-1" cx="335.54" cy="122" r="14"/><circle class="cls-1" cx="143.29" cy="14" r="14"/><path class="cls-1" d="M192,34.52a12,12,0,0,0-16.32,4.64L143.17,97.55,109.83,39.06A12,12,0,1,0,89,50.94l43.88,77A12,12,0,0,0,143.29,134h.06a12,12,0,0,0,10.42-6.16l42.89-77A12,12,0,0,0,192,34.52Z"/><path class="cls-1" d="M236.17,55a12,12,0,0,0-12,12v55a12,12,0,0,0,24,0V67A12,12,0,0,0,236.17,55Z"/><path class="cls-1" d="M351.52,68l40.53-46.07A12,12,0,1,0,374,6.07L335.54,49.83,297.05,6.07a12,12,0,0,0-18,15.86L319.56,68,279,114.07a12,12,0,0,0,18,15.86l38.49-43.76L374,129.93a12,12,0,1,0,18-15.86Z"/><circle class="cls-1" cx="14" cy="14" r="14"/><path class="cls-1" d="M31.05,67.15,76.87,22.6A12,12,0,1,0,60.13,5.4l-54.5,53-.11.12,0,0a12.48,12.48,0,0,0-1.43,1.74s0,0,0,0c-.21.3-.4.62-.58.94,0,.08-.07.16-.11.23-.14.27-.27.53-.39.81l-.18.48c-.07.2-.15.4-.22.61s-.1.38-.15.58-.11.37-.15.57,0,.35-.08.53-.08.43-.1.65,0,.33,0,.49,0,.44,0,.66V122a12,12,0,0,0,24,0V96.15l34,34.3a12,12,0,0,0,17-16.89Z"/></g></g></svg>